<?xml version="1.0" standalone="no"?>
<!DOCTYPE svg PUBLIC "-//W3C//DTD SVG 20010904//EN"
 "http://www.w3.org/TR/2001/REC-SVG-20010904/DTD/svg10.dtd">
<svg version="1.0" xmlns="http://www.w3.org/2000/svg"
 width="843.000000pt" height="208.000000pt" viewBox="0 0 843.000000 208.000000"
 preserveAspectRatio="xMidYMid meet">
<metadata>
Created by potrace 1.16, written by Peter Selinger 2001-2019
</metadata>
<g transform="translate(0.000000,208.000000) scale(0.100000,-0.100000)"
fill="#000000" stroke="none">
<path d="M4957 1950 c-111 -20 -223 -106 -270 -208 -18 -39 -22 -65 -22 -157
0 -98 3 -116 26 -166 80 -171 295 -251 489 -184 50 18 138 78 147 101 4 10
-12 33 -42 64 l-48 49 -44 -39 c-59 -52 -129 -69 -210 -50 -47 10 -67 21 -104
59 -143 143 -46 395 152 396 44 0 70 -7 119 -33 35 -17 71 -32 81 -32 19 0 89
56 89 71 0 18 -68 72 -125 99 -67 32 -161 44 -238 30z"/>
<path d="M5710 1950 c-113 -24 -208 -100 -258 -208 -24 -51 -27 -69 -27 -162
1 -87 5 -113 23 -153 32 -71 111 -149 185 -183 54 -25 74 -29 157 -29 86 0
101 3 160 31 156 74 234 223 209 403 -12 81 -49 150 -116 211 -84 77 -219 113
-333 90z m131 -141 c100 -22 168 -112 169 -224 0 -148 -111 -251 -249 -230
-56 8 -88 25 -122 62 -47 50 -63 92 -63 168 0 119 60 199 169 226 43 10 39 10
96 -2z"/>
<path d="M2390 1585 l0 -367 213 4 c204 3 215 4 261 28 68 35 108 87 114 149
7 73 -4 113 -44 159 l-36 42 26 31 c37 44 50 101 36 157 -16 66 -46 101 -109
131 -53 24 -65 26 -258 29 l-203 4 0 -367z m393 202 c22 -14 27 -25 27 -57 0
-61 -28 -74 -159 -75 l-106 0 -3 64 c-5 97 -8 94 111 89 77 -2 110 -8 130 -21z
m-25 -263 c89 -18 99 -123 15 -155 -13 -5 -71 -9 -129 -9 l-104 0 0 78 c0 43
3 82 7 85 8 9 170 9 211 1z"/>
<path d="M3331 1932 c-6 -11 -69 -170 -142 -353 -72 -184 -133 -340 -136 -346
-4 -10 14 -13 73 -13 l79 0 30 73 30 72 134 3 c81 1 138 -1 145 -8 5 -5 22
-38 36 -72 l27 -63 76 -3 c43 -2 77 -1 77 2 0 17 -272 693 -284 705 -9 8 -40
16 -75 19 -51 4 -60 2 -70 -16z m102 -255 c8 -23 26 -72 40 -109 l26 -68 -89
0 c-50 0 -90 4 -90 9 0 22 83 220 90 216 5 -3 15 -24 23 -48z"/>
<path d="M3880 1586 l0 -366 75 0 75 0 0 240 c0 132 3 240 8 240 4 0 68 -102
141 -226 74 -124 144 -232 155 -240 13 -9 47 -14 98 -14 l78 0 0 365 0 365
-75 0 -75 0 -2 -245 -3 -245 -137 228 c-75 126 -145 235 -154 243 -11 9 -48
15 -101 18 l-83 3 0 -366z"/>
<path d="M950 1530 l0 -129 156 -3 155 -3 0 -152 0 -153 135 0 134 0 0 285 0
285 -290 0 -290 0 0 -130z"/>
<path d="M3674 946 c-69 -17 -130 -54 -185 -113 -66 -70 -84 -125 -84 -253 0
-92 3 -112 26 -160 80 -170 307 -254 493 -183 50 20 146 89 146 106 0 7 -22
34 -48 60 l-48 47 -25 -26 c-66 -71 -194 -92 -278 -44 -66 38 -100 86 -113
161 -22 128 43 237 158 269 56 16 138 3 182 -29 46 -32 74 -35 111 -9 69 47
65 68 -28 127 -86 55 -200 73 -307 47z"/>
<path d="M6420 945 c-212 -60 -318 -268 -249 -491 18 -57 31 -77 82 -129 44
-44 78 -68 117 -82 152 -57 313 -32 419 65 l40 37 -49 54 -50 55 -33 -31 c-52
-49 -95 -67 -167 -67 -139 -1 -223 87 -223 234 0 109 61 193 161 221 56 15
142 0 187 -33 44 -33 88 -29 131 13 l36 34 -44 39 c-92 83 -235 115 -358 81z"/>
<path d="M2390 585 l0 -365 75 0 75 0 0 114 0 113 114 6 c86 4 126 11 163 27
100 44 147 116 148 225 0 88 -29 146 -96 191 -63 42 -134 54 -321 54 l-158 0
0 -365z m387 197 c58 -41 53 -119 -9 -165 -21 -16 -48 -21 -127 -25 l-101 -5
0 113 0 112 103 -4 c87 -3 107 -7 134 -26z"/>
<path d="M3100 585 l0 -365 75 0 75 0 0 365 0 365 -75 0 -75 0 0 -365z"/>
<path d="M4227 943 c-4 -3 -7 -168 -7 -365 l0 -358 75 0 75 0 0 150 0 151 156
-3 156 -3 1 -145 2 -145 75 0 75 0 0 360 0 360 -46 3 c-38 2 -52 -2 -75 -22
-29 -24 -29 -26 -32 -145 l-4 -122 -151 3 -152 3 -3 143 -3 142 -68 0 c-37 0
-71 -3 -74 -7z"/>
<path d="M5030 585 l0 -365 75 0 75 0 0 365 0 365 -75 0 -75 0 0 -365z"/>
<path d="M5377 943 c-4 -3 -7 -168 -7 -365 l0 -358 75 0 75 0 0 247 c0 207 2
245 13 233 8 -8 74 -116 147 -238 94 -158 140 -226 157 -233 13 -5 56 -9 94
-9 l69 0 0 365 0 365 -75 0 -75 0 -2 -242 -3 -243 -139 232 c-92 152 -148 235
-163 242 -26 12 -155 15 -166 4z"/>
<path d="M6980 946 c-3 -2 -4 -167 -2 -366 l2 -361 73 3 72 3 3 148 3 147 154
0 155 0 0 -150 0 -151 73 3 72 3 0 360 0 360 -52 0 c-86 -1 -93 -14 -93 -162
l0 -123 -155 0 -154 0 -3 143 -3 142 -70 3 c-39 1 -73 1 -75 -2z"/>
<path d="M7991 928 c-19 -50 -195 -499 -232 -592 -21 -54 -39 -102 -39 -107 0
-6 33 -9 76 -7 l76 3 28 70 28 70 143 0 143 0 29 -72 29 -73 74 0 c51 0 74 4
74 12 0 11 -176 466 -241 624 -34 81 -52 94 -130 94 -42 0 -51 -3 -58 -22z
m127 -306 c23 -60 42 -112 42 -115 0 -4 -41 -7 -91 -7 -50 0 -89 4 -87 8 2 5
21 57 43 115 21 59 42 107 46 107 3 0 25 -49 47 -108z"/>
</g>
</svg>
